<svg xmlns="http://www.w3.org/2000/svg" version="1.1" xmlns:xlink="http://www.w3.org/1999/xlink" xmlns:svgjs="http://svgjs.dev/svgjs" width="1440" height="1080" preserveAspectRatio="none" viewBox="0 0 1440 1080"><g mask="url(&quot;#SvgjsMask1004&quot;)" fill="none"><rect width="1440" height="1080" x="0" y="0" fill="#0e2a47"></rect><path d="M 0,166 C 57.6,217.8 172.8,405.4 288,425 C 403.2,444.6 460.8,286.8 576,264 C 691.2,241.2 748.8,310.4 864,311 C 979.2,311.6 1036.8,273.4 1152,267 C 1267.2,260.6 1382.4,276.6 1440,279L1440 1080L0 1080z" fill="#184a7e"></path><path d="M 0,1007 C 96,914 288,578.8 480,542 C 672,505.2 768,776.6 960,823 C 1152,869.4 1344,783.8 1440,774L1440 1080L0 1080z" fill="#2264ab"></path></g><defs><mask id="SvgjsMask1004"><rect width="1440" height="1080" fill="#ffffff"></rect></mask></defs></svg>